<?xml version="1.0" encoding="iso-8859-1"?>
<!-- Uploaded to: SVG Repo, www.svgrepo.com, Generator: SVG Repo Mixer Tools -->
<!DOCTYPE svg PUBLIC "-//W3C//DTD SVG 1.1//EN" "http://www.w3.org/Graphics/SVG/1.1/DTD/svg11.dtd">
<svg fill="#000000" height="800px" width="800px" version="1.1" id="Capa_1" xmlns="http://www.w3.org/2000/svg" xmlns:xlink="http://www.w3.org/1999/xlink" 
	 viewBox="0 0 297 297" xml:space="preserve">
<path d="M205.079,53.298c0-19.619-15.961-36.99-35.58-36.99H146.06C142.15,6.752,132.757,0,121.81,0
	c-10.946,0-20.34,6.752-24.249,16.308H74.123c-19.62,0-35.581,15.962-35.581,35.581v160.607c0,19.619,15.961,35.58,35.581,35.58
	h13.343v6.425c0,5.458,4.425,9.884,9.883,9.884h14.578v22.731c0,5.458,4.426,9.884,9.884,9.884c5.458,0,9.884-4.426,9.884-9.884
	v-22.731h14.578c5.458,0,9.884-4.426,9.884-9.884v-6.425h13.343c19.619,0,35.58-15.961,35.58-35.58v-62.441
	c13.831-8.69,53.379-36.054,53.379-64.753c0-20.059-16.241-36.378-36.204-36.378C216.04,48.924,210.193,50.515,205.079,53.298z
	 M185.312,52.532c-4.751-2.307-10.07-3.608-15.69-3.608c-19.964,0-36.206,16.319-36.206,36.378
	c0,27.729,36.925,54.211,51.896,63.808v63.387c0,8.72-7.095,15.814-15.813,15.814h-23.227H97.349H74.123
	c-7.706,0-14.133-5.543-15.525-12.849h14.289c5.459,0,9.884-4.426,9.884-9.884c0-5.458-4.425-9.884-9.884-9.884H58.309v-12.848
	h30.887c5.458,0,9.883-4.426,9.883-9.884c0-5.458-4.425-9.884-9.883-9.884H58.309V150.23h14.578c5.459,0,9.884-4.425,9.884-9.884
	c0-5.458-4.425-9.883-9.884-9.883H58.309v-12.849h30.887c5.458,0,9.883-4.426,9.883-9.884s-4.425-9.884-9.883-9.884H58.309V84.998
	h14.578c5.459,0,9.884-4.425,9.884-9.883c0-5.459-4.425-9.884-9.884-9.884H58.309V51.889c0-8.72,7.095-15.813,15.814-15.813h95.376
	C178.218,36.075,185.312,43.813,185.312,52.532z M195.94,132.463c-18.301-11.674-42.758-32.303-42.758-47.161
	c0-9.16,7.375-16.611,16.439-16.611c9.063,0,16.434,7.451,16.434,16.611c0,5.458,4.425,9.883,9.884,9.883
	c5.458,0,9.883-4.425,9.883-9.883c0-9.16,7.37-16.611,16.431-16.611c9.063,0,16.438,7.451,16.438,16.611
	C238.691,100.159,214.237,120.788,195.94,132.463z"/>
</svg>