<svg xmlns="http://www.w3.org/2000/svg" version="1.1" viewBox="-5.0 -10.0 110.0 135.0">
 <path d="m95.301 9.25c-0.93359-2.2578-3.2969-3.4961-5.6094-3.1094-0.55469-0.78125-1.3164-1.3945-2.2266-1.7695-1.2695-0.52734-2.6719-0.52734-3.9414 0-2.3203 0.96094-3.1523 2.5586-3.4453 3.7266-1.0859 4.3438 3.3086 9.8516 3.8125 10.465 0.24609 0.30078 0.61328 0.46875 0.99219 0.46875 0.042969 0 0.082032-0.003906 0.125-0.007812 0.78906-0.078126 7.7891-0.86328 10.094-4.7031 0.62109-1.0352 1.1602-2.7539 0.19922-5.0742zm-2.4023 3.7461c-1.2383 2.0664-5.3047 3.0625-7.4453 3.3828-1.2891-1.7383-3.4609-5.3203-2.875-7.6562 0.21875-0.87891 0.85156-1.5234 1.9336-1.9727 0.31641-0.13281 0.65234-0.19922 0.98438-0.19922 0.33203 0 0.66797 0.066407 0.98438 0.19922 0.63672 0.26172 1.1289 0.75781 1.3945 1.3945 0.27344 0.65625 1.0234 0.96875 1.6797 0.69531 0.63672-0.26172 1.3359-0.26172 1.9727 0 0.63672 0.26172 1.1289 0.75781 1.3945 1.3945 0.44922 1.082 0.44141 1.9844-0.027344 2.7617zm-77.781 6.625c0.38281 0 0.74609-0.17188 0.99219-0.46875 0.50391-0.61328 4.8984-6.1211 3.8125-10.465-0.29297-1.168-1.1289-2.7656-3.4453-3.7266-1.2695-0.52734-2.6719-0.52734-3.9414 0-0.90625 0.375-1.668 0.98828-2.2227 1.7695-0.94531-0.16016-1.918-0.050781-2.8242 0.32422-1.2695 0.52734-2.2617 1.5156-2.7852 2.7891-0.96094 2.3203-0.42188 4.0391 0.19922 5.0742 2.3047 3.8398 9.3047 4.6289 10.094 4.7031 0.042968 0.003906 0.082031 0.007812 0.125 0.007812zm-8.0156-6.0352c-0.46484-0.77734-0.47266-1.6797-0.027343-2.7617 0.26172-0.63672 0.75781-1.1289 1.3945-1.3945 0.31641-0.13281 0.65234-0.19922 0.98438-0.19922s0.66797 0.066406 0.98438 0.19922c0.31641 0.12891 0.66797 0.12891 0.98438 0 0.31641-0.12891 0.56641-0.38281 0.69531-0.69531 0.26172-0.63672 0.75781-1.1328 1.3945-1.3945 0.63672-0.26172 1.3359-0.26172 1.9727 0 1.082 0.44922 1.7148 1.0938 1.9336 1.9727 0.58594 2.3359-1.5859 5.918-2.875 7.6562-2.1406-0.32031-6.207-1.3125-7.4453-3.3828zm64.105 56.18c-2.7148 1.7422-6.3047 4.1602-8.9805 5.9727-0.097656-0.97266-0.5625-1.7852-1.3047-2.2734-8.1445-5.3516-15.195-6.4102-22.012-7.4297-6.0664-0.91016-15.082 2.668-18.191 4.0117-0.58594-0.79688-1.3789-1.4219-2.3164-1.8086-1.3516-0.55859-2.8438-0.55859-4.1953 0-1.3516 0.55859-2.4062 1.6133-2.9688 2.9688-0.55859 1.3516-0.55859 2.8438 0 4.1953l7.1406 17.242c0.875 2.1094 2.918 3.3828 5.0742 3.3828 0.69922 0 1.4062-0.13281 2.0898-0.41797 1.3516-0.55859 2.4062-1.6133 2.9688-2.9688 0.36719-0.89062 0.49219-1.8398 0.375-2.7734 0.058593-0.015626 0.11719-0.03125 0.17578-0.046876 2.2578-0.62891 4.5938-1.2852 12.266 1.1406 3.3516 1.0586 6.2969 1.5234 8.9688 1.5234 7.957 0 13.48-4.1289 20.039-9.0234 1.8906-1.4141 3.8477-2.8711 6-4.3438 3.5273-2.4102 3.6602-5.6836 2.2188-7.8555-1.3984-2.1133-4.4492-3.3516-7.3516-1.4922zm-45.074 21.887c-0.29687 0.71875-0.85547 1.2773-1.5742 1.5742-1.4805 0.61328-3.1875-0.09375-3.8008-1.5742l-7.1406-17.242c-0.29688-0.71875-0.29688-1.5078 0-2.2266 0.29687-0.71875 0.85547-1.2773 1.5742-1.5742 0.35938-0.14844 0.73828-0.22266 1.1133-0.22266 0.37891 0 0.75391 0.074219 1.1133 0.22266 0.71875 0.29688 1.2773 0.85547 1.5742 1.5742l7.1406 17.242c0.29688 0.71875 0.29688 1.5078 0 2.2266zm48.754-14.664c-2.1992 1.5-4.1758 2.9766-6.0898 4.4062-8.4922 6.3398-14.625 10.918-26.695 7.1055-8.3984-2.6523-11.23-1.8633-13.73-1.1641-0.097656 0.027343-0.1875 0.050781-0.28516 0.078124l-6.2344-15.055c3.0117-1.2891 11.391-4.5781 16.676-3.7852 6.543 0.98047 13.309 1.9961 20.98 7.0391 0.10156 0.066407 0.16406 0.26172 0.16406 0.51562 0.003906 0.64453-0.39844 1.6016-1.2773 2.1875-2.0312 1.3555-7.9062 0.98438-15.719-0.99219-0.69141-0.17578-1.3867 0.24219-1.5625 0.93359-0.17578 0.69141 0.24219 1.3867 0.93359 1.5625 3.8281 0.96875 8.3906 1.8672 12.133 1.8672 2.2773 0 4.2539-0.33203 5.5781-1.1836 0.16406-0.09375 9.6172-6.5039 12.84-8.5703 1.5312-0.98047 3.082-0.36719 3.8164 0.74609 0.72266 1.0898 0.69922 2.793-1.5234 4.3125zm6.4297-46.852h-1.2266c-2.3203-4.1172-2.1797-8.7266 0.42578-14.07 0.19531-0.39844 0.16797-0.87109-0.066406-1.2461s-0.64844-0.60547-1.0898-0.60547h-54.156c-5.0977 0-9.2461 4.1484-9.2461 9.2461 0 5.0977 4.1484 9.2461 9.2461 9.2461h1.1406c2.2734 5.0391 2.3008 9.418 0.085938 13.348h-1.2266c-5.0977 0-9.2461 4.1484-9.2461 9.2461 0 5.0977 4.1484 9.2461 9.2461 9.2461h54.152c0.46875 0 0.89844-0.25391 1.1289-0.66406 0.22656-0.41016 0.21094-0.91016-0.039063-1.3086-2.5703-4.082-2.6602-8.6523-0.26953-13.949h1.1406c5.0977 0 9.2461-4.1484 9.2461-9.2461s-4.1484-9.2461-9.2461-9.2461zm-5.3516-4.6055h-50.762c-1.1406 0-2.0703-0.92969-2.0703-2.0703 0-1.1406 0.92969-2.0703 2.0703-2.0703h50.887c-0.22266 1.418-0.26172 2.8008-0.125 4.1406zm-57.434-2.0703c0-3.6797 2.9922-6.6758 6.6758-6.6758h52.176c-0.27344 0.68359-0.50781 1.3594-0.70703 2.0273l-51.473 0.003906c-2.5586 0-4.6445 2.082-4.6445 4.6445s2.082 4.6445 4.6445 4.6445h51.258c0.19922 0.6875 0.44531 1.3672 0.74609 2.0312h-52.004c-3.6797 0-6.6758-2.9922-6.6758-6.6758zm11.898 13.852h50.734c1.1406 0 2.0703 0.92969 2.0703 2.0703 0 1.1406-0.92969 2.0703-2.0703 2.0703h-50.609c0.13672-1.3398 0.097656-2.7227-0.125-4.1406zm45.535 20.062h-50.762c-1.1406 0-2.0703-0.92969-2.0703-2.0703 0-1.1406 0.92969-2.0703 2.0703-2.0703h50.887c-0.22266 1.418-0.26172 2.8008-0.125 4.1406zm0.71094-6.7148h-51.473c-2.5586 0-4.6445 2.082-4.6445 4.6445 0 2.5586 2.082 4.6445 4.6445 4.6445h51.258c0.19922 0.6875 0.44531 1.3672 0.74609 2.0312l-52.004-0.003907c-3.6797 0-6.6758-2.9922-6.6758-6.6758 0-3.6797 2.9922-6.6758 6.6758-6.6758h52.176c-0.27344 0.68359-0.50781 1.3594-0.70703 2.0273zm4.6406-4.6016h-52.004c0.30078-0.66406 0.54688-1.3398 0.74609-2.0312h51.105c2.5586 0 4.6445-2.082 4.6445-4.6445 0-2.5586-2.082-4.6445-4.6445-4.6445h-51.32c-0.19922-0.66797-0.43359-1.3477-0.70703-2.0312h52.176c3.6797 0 6.6758 2.9922 6.6758 6.6758 0 3.6797-2.9922 6.6758-6.6758 6.6758z"/>
</svg>