<svg
 xmlns="http://www.w3.org/2000/svg" 
 xmlns:xlink="http://www.w3.org/1999/xlink"
  version="1.1" x="0px" y="0px" viewBox="0 0 128 160" 
  style="enable-background:new 0 0 128 128;" xml:space="preserve"><g><g>
  <path d="M82.5,69l0-38.4c-12.5-4.7-23.9-6.5-34.5-5.9L52,63.8C62.1,63.2,72.3,64.9,82.5,69z"/>
  </g><g><path d="M82.5,27v-1.9C74,18.9,64.5,14.7,56.2,14.2l0.4,7.2C65,21.9,73.7,23.8,82.5,27z"/>
  </g><g><path d="M85.4,69c10.2-4.2,20.4-5.8,30.6-5.3l3.9-39.1c-10.5-0.5-21.9,1.2-34.5,5.9V69z"/></g><g>
  <path d="M111.7,14.2c-8.2,0.5-17.8,4.7-26.3,10.9V27c8.8-3.2,17.5-5.1,25.9-5.6L111.7,14.2z"/></g><g>
  <path d="M121.1,82.1c-1.4-0.2-3,0.1-4.3,0.6c-8.1,3-15.9,6.4-24,9.4c-0.4,0.2-0.9,0.3-1.1,0.6c-2.1,2.5-4.9,3.5-8,3.5    c-5,0.1-10.1,0.2-15.1,0.3c-3.4,0.1-6.8,0.2-10.2,0.2c-0.9,0-1.9-0.9-2-2c-0.1-1,0.6-1.4,1.5-1.4c0.3,0,0.7-0.1,1-0.1    c4.2-0.1,8.5-0.2,12.7-0.3c4.5-0.1,8.9-0.1,13.4-0.4c3.1-0.2,5.2-2.5,5.3-5.5c0.1-3.2-2.4-5.6-5.8-5.6c-5,0.1-11.3-0.6-16.5-1.4    c-6.1-0.9-9.1-4.1-15-6c-9.1-2.9-18.5-1.9-27.9-1.7c0-0.7,0-1.3,0-2c-0.1-2.1-1.1-3-3.2-2.9c-5.5,0.1-11,0.3-16.5,0.4    c-0.3,0-0.7,0.1-1.3,0.1C4.4,71.1,4.6,74,5,76.8c1.5,10.6,5.2,20.3,11,29.3c0.3,0.4,0.9,0.8,1.4,0.8c1.9,0.1,3.8,0,5.6-0.1    c1.9-0.1,2.9-1.1,2.8-3c0-0.5,0-1.1,0-1.6c0,0,0,0,0,0c4.2,1.2,8.5,2.5,12.7,3.7c7.9,2.3,15.7,4.7,23.7,6.7    c6.6,1.7,13.2,1.9,19.5-1.6c13.3-7.3,26.6-14.6,39.9-21.9c0.7-0.4,1.3-1,1.7-1.6C124.8,85.4,123.7,82.4,121.1,82.1z"/></g></g>
  </svg>